# xmcd CD database file generated by Grip 3.2.0
# 
# Track frame offsets:
#       182
#       15052
#       30395
#       44795
#       60850
#       74400
#       90245
#       101115
#       113082
#       125770
#       143082
#       155502
#       166265
#       180795
#       195300
#       207037
# 
# Disc length: 2925 seconds
# 
# Revision: 2
# Processed by: cddbd v1.5.2PL0 Copyright (c) Steve Scherf et al.
# Submitted via: Grip 3.2.0
# 
DISCID=c10b6b10
DTITLE=Various Artist - A Memorial for Glenn Miller - Miller Bigband Orchest
DTITLE=ra - Vol. 2
DYEAR=1984
DGENRE=Jazz
TTITLE0=Bob Clayman - King's March
TTITLE1=Johnson - Dash - Hawkins - Feyne - Tuxedo Junction
TTITLE2=Kern-Hammerstein - All the Things You Are
TTITLE3=Meacham - Gray - American Patrol
TTITLE4=Duke - Harburg - April in Paris
TTITLE5=B. Finegan - Song of the Volga Boatmen
TTITLE6=Cole Porter - Night and Day
TTITLE7=L. Handman - H. Harris - A. Gottler - Baby Me
TTITLE8=Carmichael - Gorrell - Georgia on My Mind
TTITLE9=J. Mercer - Dream
TTITLE10=E. Y. Harburg - H. Arlen - Over the Rainbow
TTITLE11=Grey - Wood - Gibbs - Runnin' Wild
TTITLE12=H. Arlen - Koehler - Stormy Weather
TTITLE13=George Gershwin - The Man I Love
TTITLE14=Rodgers - Hart - George Gershwin - Lady Is a Tramp
TTITLE15=Woods - Madriguera - Adios
EXTD=
EXTT0=
EXTT1=
EXTT2=
EXTT3=
EXTT4=
EXTT5=
EXTT6=
EXTT7=
EXTT8=
EXTT9=
EXTT10=
EXTT11=
EXTT12=
EXTT13=
EXTT14=
EXTT15=
PLAYORDER=
